<?xml version="1.0" encoding="iso-8859-1"?>
<!-- Generator: Adobe Illustrator 21.0.0, SVG Export Plug-In . SVG Version: 6.00 Build 0)  -->
<svg xmlns="http://www.w3.org/2000/svg" xmlns:xlink="http://www.w3.org/1999/xlink" version="1.1" id="Capa_1" x="0px" y="0px" viewBox="0 0 512 512" style="enable-background:new 0 0 512 512;" xml:space="preserve" width="512" height="512">
<g>
	<g>
		<g>
			<g>
				<g>
					<g>
						<g>
							<g>
								<g>
									<g>
										<g>
											<circle style="fill:#555A66;" cx="256" cy="256" r="256"/>
										</g>
									</g>
								</g>
							</g>
						</g>
					</g>
				</g>
			</g>
		</g>
	</g>
	<path style="fill:#333940;" d="M512,256c0-10.097-0.604-20.052-1.741-29.844L408.216,124.113l-15.139,48.555l-67.055-67.055   L111.534,377.1L246.23,511.796c3.243,0.122,6.497,0.204,9.77,0.204C397.385,512,512,397.385,512,256z"/>
	<g>
		<rect x="206.274" y="124.113" style="fill:#FA5D0F;" width="201.942" height="282.985"/>
	</g>
	<g>
		<rect x="206.274" y="255.905" style="fill:#F24500;" width="201.942" height="151.194"/>
	</g>
	<g>
		<polygon style="fill:#FFFFFF;" points="326.023,105.613 111.534,105.613 111.534,377.1 272.026,377.1 326.023,323.103   "/>
	</g>
	<g>
		<polygon style="fill:#E9EDF5;" points="216.619,105.613 216.619,377.1 272.026,377.1 326.023,323.103 326.023,105.613   "/>
	</g>
	<g>
		<polygon style="fill:#FFCE00;" points="272.026,377.1 326.023,323.103 272.026,323.103   "/>
	</g>
	<g>
		<rect x="134.033" y="147.875" style="fill:#E9EDF5;" width="164.992" height="31.64"/>
	</g>
	<g>
		<rect x="216.619" y="147.875" style="fill:#DCE1EB;" width="82.405" height="31.641"/>
	</g>
	<g>
		<rect x="134.033" y="202.768" style="fill:#E9EDF5;" width="164.992" height="31.64"/>
	</g>
	<g>
		<rect x="216.619" y="202.768" style="fill:#DCE1EB;" width="82.405" height="31.641"/>
	</g>
	<g>
		<rect x="134.033" y="257.662" style="fill:#E9EDF5;" width="164.992" height="31.64"/>
	</g>
	<g>
		<rect x="216.619" y="257.662" style="fill:#DCE1EB;" width="82.405" height="31.64"/>
	</g>
	<g>
		<g>
			<path style="fill:#FFFFFF;" d="M386.891,153.492l0,14.635l-28.061,19.098l28.061,0l0,14.773l-50.721,0l0-14.773l27.85-18.995     l-27.849,0l0-14.738L386.891,153.492z"/>
		</g>
		<g>
			<path style="fill:#FFFFFF;" d="M386.89,212.377l0,42.002l-10.829,0l0-26.294l-8.061,0l0,24.392l-10.345,0l0-24.392l-9.999,0     l0,27.055l-11.487,0l0-42.763L386.89,212.377z"/>
		</g>
		<g>
			<path style="fill:#E9EDF5;" d="M386.89,258.358l0,14.886l-28.395,5.36l28.395,7.844l0,14.833l-28.357,7.863l28.357,5.365     l0,14.809l-50.721-11.18l0-15.369l31.934-8.896l-31.934-8.861l0-15.369L386.89,258.358z"/>
		</g>
		<g>
			<path style="fill:#E9EDF5;" d="M352.949,331.704l0.934,14.912c-2.422,0.322-4.267,0.98-5.536,1.972     c-2.053,1.614-3.079,3.921-3.079,6.92c0,2.237,0.524,3.961,1.574,5.172c1.049,1.211,2.266,1.817,3.65,1.817     c1.315,0,2.491-0.577,3.529-1.73c1.038-1.153,2.018-3.829,2.941-8.027c1.545-6.873,3.598-11.775,6.158-14.704     c2.56-2.953,5.824-4.429,9.791-4.429c2.606,0,5.069,0.756,7.387,2.266c2.318,1.511,4.14,3.782,5.467,6.816     c1.326,3.032,1.989,7.19,1.989,12.472c0,6.481-1.206,11.423-3.616,14.825c-2.411,3.402-6.245,5.426-11.504,6.072l-0.865-14.773     c2.284-0.393,3.944-1.217,4.982-2.474c1.038-1.258,1.557-2.993,1.557-5.207c0-1.822-0.387-3.195-1.159-4.117     c-0.773-0.922-1.713-1.383-2.82-1.383c-0.808,0-1.534,0.38-2.18,1.141c-0.669,0.738-1.292,2.491-1.868,5.259     c-1.476,6.85-2.97,11.757-4.48,14.721c-1.511,2.963-3.385,5.12-5.622,6.47c-2.238,1.35-4.74,2.024-7.508,2.024     c-3.252,0-6.251-0.9-8.995-2.699c-2.745-1.799-4.826-4.313-6.245-7.542c-1.418-3.23-2.128-7.3-2.128-12.213     c0-8.627,1.661-14.6,4.982-17.921C343.608,334.023,347.828,332.142,352.949,331.704z"/>
		</g>
	</g>
</g>















</svg>
